<svg xmlns="http://www.w3.org/2000/svg" viewBox="0 0 512 512" style="enable-background:new 0 0 512 512" xml:space="preserve"><path style="fill:#ff3f62" d="M437.02 74.98C388.668 26.629 324.38 0 256 0S123.333 26.629 74.981 74.98c-99.814 99.814-99.815 262.223-.002 362.038C123.331 485.371 187.62 512 256 512s132.668-26.629 181.02-74.982c99.813-99.815 99.813-262.224 0-362.038z"/><path style="fill:#830018" d="M371.193 338.28 288.912 256l82.28-82.281c9.089-9.087 9.089-23.824 0-32.912-9.087-9.089-23.824-9.087-32.912 0L256 223.088l-82.282-82.282c-9.087-9.089-23.824-9.089-32.912 0-9.089 9.087-9.089 23.824 0 32.912L223.087 256l-82.282 82.282c-9.089 9.087-9.089 23.824 0 32.912a23.193 23.193 0 0 0 16.455 6.817 23.197 23.197 0 0 0 16.455-6.817L256 288.912l82.281 82.28c4.544 4.544 10.501 6.817 16.455 6.817s11.913-2.273 16.455-6.817c9.091-9.087 9.091-23.823.002-32.912z"/><path style="fill:#ff3f62" d="M256 0v223.088l82.28-82.282c9.087-9.087 23.824-9.089 32.912 0 9.089 9.087 9.089 23.824 0 32.912L288.912 256l82.281 82.28c9.089 9.087 9.089 23.824 0 32.912a23.203 23.203 0 0 1-16.457 6.817 23.195 23.195 0 0 1-16.455-6.817L256 288.912V512c68.38 0 132.668-26.629 181.02-74.982 99.814-99.815 99.814-262.225 0-362.038C388.668 26.629 324.38 0 256 0z"/><path style="fill:#ff0c38" d="M173.718 371.194a23.202 23.202 0 0 1-16.455 6.817 23.194 23.194 0 0 1-16.457-6.817c-9.089-9.087-9.089-23.824 0-32.912L223.087 256l-82.282-82.281c-9.089-9.087-9.089-23.824 0-32.912 9.087-9.089 23.825-9.089 32.912 0L256 223.088V0C187.62 0 123.333 26.629 74.981 74.98c-99.814 99.814-99.815 262.223-.002 362.038C123.331 485.371 187.62 512 256 512V288.912l-82.282 82.282z"/><path style="fill:#830018" d="M371.193 338.28 288.912 256l82.28-82.281c9.089-9.087 9.089-23.824 0-32.912-9.087-9.089-23.824-9.087-32.912 0L256 223.088l-82.282-82.282c-9.087-9.089-23.824-9.089-32.912 0-9.089 9.087-9.089 23.824 0 32.912L223.087 256l-82.282 82.282c-9.089 9.087-9.089 23.824 0 32.912a23.193 23.193 0 0 0 16.455 6.817 23.197 23.197 0 0 0 16.455-6.817L256 288.912l82.281 82.28c4.544 4.544 10.501 6.817 16.455 6.817s11.913-2.273 16.455-6.817c9.091-9.087 9.091-23.823.002-32.912z"/><path style="fill:#ff0c38" d="M173.718 371.194a23.202 23.202 0 0 1-16.455 6.817 23.194 23.194 0 0 1-16.457-6.817c-9.089-9.087-9.089-23.824 0-32.912L223.087 256l-82.282-82.281c-9.089-9.087-9.089-23.824 0-32.912 9.087-9.089 23.825-9.089 32.912 0L256 223.088V0C187.62 0 123.333 26.629 74.981 74.98c-99.814 99.814-99.815 262.223-.002 362.038C123.331 485.371 187.62 512 256 512V288.912l-82.282 82.282z"/></svg>