<svg xmlns="http://www.w3.org/2000/svg" viewBox="0 0 506.884 506.884" style="enable-background:new 0 0 506.884 506.884" xml:space="preserve"><path style="fill:#5c546a" d="M86.881 24.005c-19.525 0-37.685 5.683-53.08 15.358-4.985 43.472-.126 87.757 11.738 130.36 5.124 18.4 12.105 35.543 20.194 51.994 6.822 1.47 13.886 2.288 21.148 2.288 55.229 0 100-44.771 100-100s-44.772-100-100-100zM293.42 389.15c39.214 51.595 104.149 75.927 169.707 90.345 12.355-16.637 19.754-37.174 19.754-59.489 0-55.229-44.771-100-100-100-42.754 0-79.139 26.882-93.44 64.625 1.378 1.391 2.721 2.863 3.979 4.519z"/><path style="fill:#ff4f19" d="M505.906 413.826c-2.483-11.091-10.191-20.315-20.04-25.986l-123.681-71.213c-15.227-8.773-34.586-6.223-47.023 6.223l-34.474 34.471c-5.729 5.728-14.885 6.366-21.215 1.309-20.058-16.027-39.719-33.649-58.639-52.573-18.928-18.924-36.548-38.583-52.579-58.642-5.058-6.329-4.421-15.487 1.309-21.216l34.473-34.473c12.466-12.466 15.016-31.746 6.219-47.024L118.193 19.544C111.506 7.914 99.568.617 85.932.032 74.585-.454 63.681 4.588 55.65 12.619L19.693 48.575c-25.859 25.86-26.266 73.2-1.133 133.301 24.195 57.848 69.344 121.531 127.133 179.316 57.789 57.789 121.469 102.938 179.32 127.129 29.602 12.379 56.102 18.563 78.469 18.563 23.047 0 41.711-6.566 54.828-19.691l37.148-37.145c9.49-9.489 13.43-22.905 10.448-36.222z"/><path style="fill:#e7001e" d="m487.249 458.257 8.21-8.209c8.648-8.648 12.688-20.559 11.078-32.684-1.602-12.121-8.602-22.574-19.195-28.676l-125.156-72.063c-15.227-8.773-34.586-6.223-47.023 6.223l-23.681 23.679 195.767 111.73zM160.96 214.801l23.077-23.077c12.445-12.441 15-31.777 6.219-47.023L118.193 19.544C112.099 8.947 101.646 1.947 89.521.345c-12.188-1.602-24.039 2.434-32.68 11.082l-8.235 8.235L160.96 214.801z"/></svg>